<svg xmlns="http://www.w3.org/2000/svg" viewBox="0 0 640 420" width="640" height="420" role="img" aria-label="Illustration of a bathroom ceiling with dark mold growth above the shower and a weak exhaust fan"><title>Illustration of a bathroom ceiling with dark mold growth above the shower and a weak exhaust fan</title><rect width="640" height="420" fill="#f5f8f6"/><rect x="30" y="30" width="580" height="360" fill="#fff" stroke="#10231f" stroke-width="2"/><rect x="30" y="30" width="580" height="80" fill="#eef3f0" stroke="#10231f" stroke-width="2"/><circle cx="113.3" cy="92.2" r="5.2" fill="#1f3320" opacity=".88"/><circle cx="146.4" cy="94.0" r="6.6" fill="#566b2e" opacity=".88"/><circle cx="116.3" cy="77.0" r="9.0" fill="#566b2e" opacity=".88"/><circle cx="155.7" cy="92.4" r="5.4" fill="#2f4a2b" opacity=".88"/><circle cx="112.5" cy="72.9" r="8.6" fill="#566b2e" opacity=".88"/><circle cx="183.8" cy="98.4" r="3.4" fill="#1f3320" opacity=".88"/><circle cx="86.0" cy="103.7" r="7.9" fill="#566b2e" opacity=".88"/><circle cx="146.2" cy="100.7" r="8.3" fill="#1f3320" opacity=".88"/><circle cx="190.3" cy="86.4" r="7.4" fill="#1f3320" opacity=".88"/><circle cx="142.2" cy="111.3" r="8.3" fill="#2f4a2b" opacity=".88"/><circle cx="85.0" cy="89.7" r="4.5" fill="#1f3320" opacity=".88"/><circle cx="141.1" cy="96.2" r="4.8" fill="#1f3320" opacity=".88"/><circle cx="196.7" cy="93.6" r="6.2" fill="#566b2e" opacity=".88"/><circle cx="161.8" cy="109.8" r="7.1" fill="#2f4a2b" opacity=".88"/><circle cx="199.9" cy="114.1" r="7.0" fill="#2f4a2b" opacity=".88"/><circle cx="177.8" cy="81.5" r="6.3" fill="#1f3320" opacity=".88"/><circle cx="159.7" cy="100.5" r="4.3" fill="#1f3320" opacity=".88"/><circle cx="117.4" cy="71.6" r="5.9" fill="#1f3320" opacity=".88"/><circle cx="218.6" cy="69.8" r="7.8" fill="#566b2e" opacity=".88"/><circle cx="205.6" cy="66.5" r="5.6" fill="#566b2e" opacity=".88"/><circle cx="202.2" cy="67.7" r="6.7" fill="#2f4a2b" opacity=".88"/><circle cx="132.9" cy="94.2" r="6.3" fill="#566b2e" opacity=".88"/><circle cx="150.8" cy="114.4" r="4.9" fill="#2f4a2b" opacity=".88"/><circle cx="95.1" cy="91.7" r="8.7" fill="#566b2e" opacity=".88"/><circle cx="307.4" cy="75.1" r="7.8" fill="#1f3320" opacity=".88"/><circle cx="309.1" cy="70.6" r="8.0" fill="#2f4a2b" opacity=".88"/><circle cx="308.9" cy="78.4" r="3.7" fill="#566b2e" opacity=".88"/><circle cx="322.1" cy="67.5" r="3.6" fill="#2f4a2b" opacity=".88"/><circle cx="270.8" cy="64.1" r="4.7" fill="#566b2e" opacity=".88"/><circle cx="279.6" cy="76.2" r="3.8" fill="#1f3320" opacity=".88"/><circle cx="296.7" cy="62.3" r="8.8" fill="#2f4a2b" opacity=".88"/><circle cx="282.6" cy="64.0" r="8.9" fill="#2f4a2b" opacity=".88"/><rect x="420" y="52" width="70" height="40" rx="6" fill="#d3dcd8" stroke="#10231f" stroke-width="2"/><line x1="430" y1="72" x2="480" y2="72" stroke="#10231f"/><line x1="430" y1="62" x2="480" y2="62" stroke="#10231f"/><line x1="430" y1="82" x2="480" y2="82" stroke="#10231f"/><rect x="60" y="110" width="170" height="280" fill="#e4f1ec" stroke="#10231f" stroke-width="2"/><path d="M85 130 q6 20 0 40" stroke="#2f7ab8" fill="none" stroke-width="3" stroke-linecap="round" opacity=".7"/><path d="M105 130 q6 20 0 40" stroke="#2f7ab8" fill="none" stroke-width="3" stroke-linecap="round" opacity=".7"/><path d="M125 130 q6 20 0 40" stroke="#2f7ab8" fill="none" stroke-width="3" stroke-linecap="round" opacity=".7"/><path d="M145 130 q6 20 0 40" stroke="#2f7ab8" fill="none" stroke-width="3" stroke-linecap="round" opacity=".7"/><path d="M165 130 q6 20 0 40" stroke="#2f7ab8" fill="none" stroke-width="3" stroke-linecap="round" opacity=".7"/><path d="M185 130 q6 20 0 40" stroke="#2f7ab8" fill="none" stroke-width="3" stroke-linecap="round" opacity=".7"/><path d="M205 130 q6 20 0 40" stroke="#2f7ab8" fill="none" stroke-width="3" stroke-linecap="round" opacity=".7"/><path d="M110 120 q-10 -20 10 -30 t0 -30" stroke="#6b8a82" stroke-width="3" fill="none" stroke-dasharray="4 5"/><rect x="330" y="300" width="230" height="90" rx="12" fill="#fff" stroke="#10231f" stroke-width="2"/><text x="445" y="352" text-anchor="middle" font-family="system-ui,Arial,sans-serif" font-size="16" font-weight="700" fill="#10231f">Bathroom floor</text><line x1="150" y1="96" x2="250" y2="154" stroke="#10231f" stroke-width="1.2"/><circle cx="150" cy="96" r="3.5" fill="#10231f"/><rect x="250" y="140" width="300" height="28" rx="5" fill="#fff" stroke="#10231f" stroke-width="1.2"/><text x="258" y="159" font-family="system-ui,Arial,sans-serif" font-size="13" font-weight="700" fill="#10231f">Mold above the shower, away from the fan</text><line x1="455" y1="94" x2="300" y2="219" stroke="#10231f" stroke-width="1.2"/><circle cx="455" cy="94" r="3.5" fill="#10231f"/><rect x="300" y="205" width="260" height="28" rx="5" fill="#fff" stroke="#10231f" stroke-width="1.2"/><text x="308" y="224" font-family="system-ui,Arial,sans-serif" font-size="13" font-weight="700" fill="#10231f">Fan weak or venting into the attic</text></svg>