<svg xmlns="http://www.w3.org/2000/svg" viewBox="0 0 640 380" width="640" height="380" role="img" aria-label="Comparison of ceiling mold that may be a do-it-yourself job versus mold that needs a professional"><title>Comparison of ceiling mold that may be a do-it-yourself job versus mold that needs a professional</title><rect width="640" height="380" fill="#f5f8f6"/><defs><marker id="ar" markerWidth="10" markerHeight="10" refX="7" refY="3.5" orient="auto"><path d="M0 0 L7 3.5 L0 7 z" fill="#10231f"/></marker></defs><rect x="20" y="20" width="290" height="340" rx="16" fill="#e6f4ec" stroke="#1f7a4d" stroke-width="3"/><rect x="330" y="20" width="290" height="340" rx="16" fill="#fdeee9" stroke="#c93a17" stroke-width="3"/><text x="165" y="56" font-family="system-ui,Arial,sans-serif" font-size="22" font-weight="800" fill="#1f7a4d" text-anchor="middle">Often a DIY job</text><text x="475" y="56" font-family="system-ui,Arial,sans-serif" font-size="22" font-weight="800" fill="#c93a17" text-anchor="middle">Call a professional</text><rect x="45" y="78" width="240" height="26" rx="10" fill="#fff" stroke="#10231f" stroke-width="2"/><circle cx="105.2" cy="84.2" r="5.4" fill="#2f4a2b" opacity=".88"/><circle cx="97.0" cy="82.6" r="6.3" fill="#566b2e" opacity=".88"/><circle cx="136.8" cy="97.2" r="4.3" fill="#1f3320" opacity=".88"/><circle cx="112.2" cy="97.5" r="8.0" fill="#566b2e" opacity=".88"/><circle cx="104.0" cy="100.4" r="8.0" fill="#566b2e" opacity=".88"/><circle cx="136.8" cy="86.0" r="4.9" fill="#1f3320" opacity=".88"/><circle cx="140.6" cy="101.0" r="8.1" fill="#566b2e" opacity=".88"/><rect x="355" y="78" width="240" height="26" rx="10" fill="#fff" stroke="#10231f" stroke-width="2"/><circle cx="420.3" cy="124.4" r="3.8" fill="#1f3320" opacity=".88"/><circle cx="383.8" cy="66.6" r="7.9" fill="#1f3320" opacity=".88"/><circle cx="416.9" cy="101.9" r="5.8" fill="#566b2e" opacity=".88"/><circle cx="453.1" cy="97.1" r="8.4" fill="#566b2e" opacity=".88"/><circle cx="392.9" cy="73.4" r="3.1" fill="#566b2e" opacity=".88"/><circle cx="479.0" cy="90.2" r="8.5" fill="#1f3320" opacity=".88"/><circle cx="397.7" cy="75.1" r="8.9" fill="#2f4a2b" opacity=".88"/><circle cx="452.3" cy="115.1" r="3.6" fill="#2f4a2b" opacity=".88"/><circle cx="442.7" cy="105.4" r="6.0" fill="#1f3320" opacity=".88"/><circle cx="478.4" cy="71.6" r="7.9" fill="#1f3320" opacity=".88"/><circle cx="387.9" cy="123.2" r="5.9" fill="#2f4a2b" opacity=".88"/><circle cx="404.6" cy="117.2" r="5.7" fill="#1f3320" opacity=".88"/><circle cx="551.2" cy="77.0" r="5.1" fill="#566b2e" opacity=".88"/><circle cx="402.0" cy="110.5" r="3.6" fill="#1f3320" opacity=".88"/><circle cx="437.8" cy="82.0" r="6.9" fill="#566b2e" opacity=".88"/><circle cx="475.7" cy="70.8" r="3.9" fill="#1f3320" opacity=".88"/><circle cx="431.9" cy="103.0" r="7.8" fill="#1f3320" opacity=".88"/><circle cx="557.6" cy="95.1" r="5.1" fill="#2f4a2b" opacity=".88"/><circle cx="434.1" cy="72.4" r="3.2" fill="#566b2e" opacity=".88"/><circle cx="450.4" cy="115.4" r="8.3" fill="#2f4a2b" opacity=".88"/><circle cx="506.5" cy="65.1" r="8.6" fill="#2f4a2b" opacity=".88"/><circle cx="415.4" cy="110.7" r="4.8" fill="#2f4a2b" opacity=".88"/><circle cx="534.3" cy="83.6" r="8.0" fill="#1f3320" opacity=".88"/><circle cx="462.1" cy="73.2" r="5.5" fill="#566b2e" opacity=".88"/><circle cx="456.4" cy="62.6" r="3.4" fill="#1f3320" opacity=".88"/><circle cx="394.0" cy="63.0" r="3.6" fill="#1f3320" opacity=".88"/><path d="M355 104 q120 30 240 0" fill="#fff" stroke="#10231f" stroke-width="2" stroke-linecap="round" stroke-linejoin="round" /><path d="M44 164 l7.0 7.0 l14.0 -15.0" fill="none" stroke="#1f7a4d" stroke-width="4" stroke-linecap="round" stroke-linejoin="round" /><text x="74" y="176" font-family="system-ui,Arial,sans-serif" font-size="16" font-weight="600" fill="#10231f" text-anchor="start">Under ~10 sq ft (a towel)</text><path d="M354 158 l14.0 14.0 M368.0 158 l-14.0 14.0" fill="none" stroke="#c93a17" stroke-width="4" stroke-linecap="round" stroke-linejoin="round" /><text x="384" y="176" font-family="system-ui,Arial,sans-serif" font-size="16" font-weight="600" fill="#10231f" text-anchor="start">Larger or still spreading</text><path d="M44 210 l7.0 7.0 l14.0 -15.0" fill="none" stroke="#1f7a4d" stroke-width="4" stroke-linecap="round" stroke-linejoin="round" /><text x="74" y="222" font-family="system-ui,Arial,sans-serif" font-size="16" font-weight="600" fill="#10231f" text-anchor="start">Paint firm, no bubbling</text><path d="M354 204 l14.0 14.0 M368.0 204 l-14.0 14.0" fill="none" stroke="#c93a17" stroke-width="4" stroke-linecap="round" stroke-linejoin="round" /><text x="384" y="222" font-family="system-ui,Arial,sans-serif" font-size="16" font-weight="600" fill="#10231f" text-anchor="start">Soft, bubbled or sagging</text><path d="M44 256 l7.0 7.0 l14.0 -15.0" fill="none" stroke="#1f7a4d" stroke-width="4" stroke-linecap="round" stroke-linejoin="round" /><text x="74" y="268" font-family="system-ui,Arial,sans-serif" font-size="16" font-weight="600" fill="#10231f" text-anchor="start">Cause found and fixed</text><path d="M354 250 l14.0 14.0 M368.0 250 l-14.0 14.0" fill="none" stroke="#c93a17" stroke-width="4" stroke-linecap="round" stroke-linejoin="round" /><text x="384" y="268" font-family="system-ui,Arial,sans-serif" font-size="16" font-weight="600" fill="#10231f" text-anchor="start">Returns after cleaning</text><path d="M44 302 l7.0 7.0 l14.0 -15.0" fill="none" stroke="#1f7a4d" stroke-width="4" stroke-linecap="round" stroke-linejoin="round" /><text x="74" y="314" font-family="system-ui,Arial,sans-serif" font-size="16" font-weight="600" fill="#10231f" text-anchor="start">No one sensitive to mold</text><path d="M354 296 l14.0 14.0 M368.0 296 l-14.0 14.0" fill="none" stroke="#c93a17" stroke-width="4" stroke-linecap="round" stroke-linejoin="round" /><text x="384" y="314" font-family="system-ui,Arial,sans-serif" font-size="16" font-weight="600" fill="#10231f" text-anchor="start">Musty smell, none seen</text></svg>