<svg xmlns="http://www.w3.org/2000/svg" viewBox="0 0 640 360" width="640" height="360" role="img" aria-label="Illustration of Treasure Coast homes with palm trees beside the Indian River Lagoon"><title>Illustration of Treasure Coast homes with palm trees beside the Indian River Lagoon</title><rect width="640" height="360" fill="#e8f3f0"/><circle cx="520" cy="80" r="40" fill="#f2b705" opacity=".9"/><rect y="250" width="640" height="110" fill="#8fc3d6"/><path d="M20 285 q20 -10 40 0 t40 0" stroke="#fff" stroke-width="3" fill="none"/><path d="M100 303 q20 -10 40 0 t40 0" stroke="#fff" stroke-width="3" fill="none"/><path d="M180 285 q20 -10 40 0 t40 0" stroke="#fff" stroke-width="3" fill="none"/><path d="M260 303 q20 -10 40 0 t40 0" stroke="#fff" stroke-width="3" fill="none"/><path d="M340 285 q20 -10 40 0 t40 0" stroke="#fff" stroke-width="3" fill="none"/><path d="M420 303 q20 -10 40 0 t40 0" stroke="#fff" stroke-width="3" fill="none"/><path d="M500 285 q20 -10 40 0 t40 0" stroke="#fff" stroke-width="3" fill="none"/><path d="M580 303 q20 -10 40 0 t40 0" stroke="#fff" stroke-width="3" fill="none"/><rect x="60" y="170" width="190" height="90" fill="#fff" stroke="#10231f" stroke-width="2"/><polygon points="50,170 155,120 260,170" fill="#c7d3ce" stroke="#10231f" stroke-width="2"/><rect x="85" y="195" width="35" height="65" fill="#0e6b63"/><rect x="160" y="195" width="60" height="38" fill="#cfe7f3" stroke="#10231f" stroke-width="2"/><rect x="300" y="190" width="150" height="70" fill="#fff" stroke="#10231f" stroke-width="2"/><rect x="300" y="180" width="150" height="14" fill="#c7d3ce" stroke="#10231f" stroke-width="2"/><rect x="320" y="212" width="26" height="30" fill="#cfe7f3" stroke="#10231f" stroke-width="2"/><rect x="360" y="212" width="26" height="30" fill="#cfe7f3" stroke="#10231f" stroke-width="2"/><rect x="400" y="212" width="26" height="30" fill="#cfe7f3" stroke="#10231f" stroke-width="2"/><rect x="280" y="150" width="8" height="110" fill="#8a6a45"/><path d="M284 150 q-40 -30 -56 8 M284 150 q40 -30 56 8 M284 150 q-10 -46 -30 -34 M284 150 q10 -46 30 -34" stroke="#0e6b63" stroke-width="6" fill="none" stroke-linecap="round"/><rect x="470" y="150" width="8" height="110" fill="#8a6a45"/><path d="M474 150 q-40 -30 -56 8 M474 150 q40 -30 56 8 M474 150 q-10 -46 -30 -34 M474 150 q10 -46 30 -34" stroke="#0e6b63" stroke-width="6" fill="none" stroke-linecap="round"/><rect x="560" y="150" width="8" height="110" fill="#8a6a45"/><path d="M564 150 q-40 -30 -56 8 M564 150 q40 -30 56 8 M564 150 q-10 -46 -30 -34 M564 150 q10 -46 30 -34" stroke="#0e6b63" stroke-width="6" fill="none" stroke-linecap="round"/></svg>